<?xml version="1.0" encoding="UTF-8"?>
<svg version="1.1" xmlns="http://www.w3.org/2000/svg" width="2048" height="2048">
<path d="M0 0 C675.84 0 1351.68 0 2048 0 C2048 675.84 2048 1351.68 2048 2048 C1372.16 2048 696.32 2048 0 2048 C0 1372.16 0 696.32 0 0 Z " fill="#FEFEFE" transform="translate(0,0)"/>
<path d="M0 0 C1.26548208 -0.00175304 2.53096417 -0.00350607 3.83479419 -0.00531223 C7.33742017 -0.01001961 10.84002 -0.00854794 14.34264722 -0.00603446 C18.1571228 -0.0043963 21.9715929 -0.00854644 25.78606671 -0.01194364 C32.46827065 -0.0170908 39.15046735 -0.01851603 45.83267307 -0.01748753 C55.76953049 -0.01596182 65.70637991 -0.02012606 75.64323577 -0.02536215 C94.42323769 -0.0350316 113.20323688 -0.03784623 131.983241 -0.03841921 C146.48518127 -0.03887877 160.98712048 -0.04093721 175.4890604 -0.04411983 C179.66357889 -0.04501738 183.83809737 -0.04590719 188.01261586 -0.04679471 C189.050412 -0.04701576 190.08820815 -0.04723681 191.15745266 -0.04746456 C220.34712278 -0.05361841 249.53679252 -0.05756515 278.72646332 -0.05712128 C280.37712766 -0.05709791 280.37712766 -0.05709791 282.06113875 -0.05707407 C287.63863619 -0.05699096 293.21613362 -0.05689192 298.79363105 -0.05678936 C300.45519769 -0.05675944 300.45519769 -0.05675944 302.15033132 -0.05672892 C304.39039218 -0.05668848 306.63045305 -0.05664669 308.87051392 -0.05660353 C343.72739923 -0.05599068 378.58427481 -0.06349918 413.44115734 -0.07717609 C452.60240429 -0.09253559 491.76364484 -0.10114241 530.92489499 -0.10021287 C535.10035654 -0.10013824 539.27581809 -0.10008953 543.45127964 -0.10005856 C544.99343805 -0.10004107 544.99343805 -0.10004107 546.56675117 -0.10002324 C563.11280788 -0.09999246 579.65885614 -0.10637873 596.20491033 -0.11499082 C612.83227808 -0.12346628 629.45963348 -0.12445807 646.0870022 -0.1178815 C655.96461148 -0.11418529 665.84218324 -0.11602035 675.71978855 -0.12582384 C682.32016412 -0.13182117 688.92051249 -0.13053111 695.52088681 -0.12335334 C699.27990231 -0.1194698 703.03884515 -0.11870207 706.79785553 -0.12681069 C710.85338179 -0.13548215 714.90873697 -0.12858147 718.96426392 -0.12025452 C720.12249162 -0.1252227 721.28071932 -0.13019088 722.47404483 -0.13530961 C763.36940572 0.04219389 799.7409179 19.52902145 828.00292492 47.95675945 C835.13146067 55.31216861 840.86672188 63.38385783 846.17089367 72.12863445 C846.70625744 73.00745281 846.70625744 73.00745281 847.25243664 73.90402508 C851.77395471 81.47316102 855.2782298 89.39844337 858.42089367 97.62863445 C858.89679943 98.82564983 858.89679943 98.82564983 859.38231945 100.04684734 C866.19787551 118.75470708 866.75597925 138.61497308 866.67425823 158.27927876 C866.67844011 160.85275913 866.68437201 163.42623713 866.6918757 165.99970996 C866.70532815 171.57254671 866.70420898 177.14522636 866.69314152 182.71806617 C866.67664865 191.06074662 866.68352505 199.40330167 866.69467209 207.74598524 C866.71300472 221.97025053 866.71250507 236.19445845 866.70154858 250.41872883 C866.69052187 264.8221347 866.68823956 279.22550286 866.69649792 293.62891102 C866.69701461 294.54054229 866.6975313 295.45217355 866.69806365 296.39143001 C866.70019686 300.10469945 866.70239171 303.81796884 866.70466475 307.53123819 C866.7257942 342.07311659 866.72726928 376.61496972 866.71607494 411.15685177 C866.71574376 412.17926085 866.71541258 413.20166994 866.71507136 414.25506112 C866.71457378 415.79114168 866.71457378 415.79114168 866.71406616 417.35825418 C866.70396748 448.57536127 866.70137062 479.79245792 866.70615673 511.00956631 C866.70646665 513.10121529 866.70677527 515.19286428 866.70708261 517.28451327 C866.70832451 525.6902771 866.70959918 534.09604093 866.71092167 542.50180475 C866.7145894 565.99818469 866.71687202 589.49456467 866.71806622 612.99094486 C866.7181208 614.06084531 866.71817538 615.13074576 866.71823162 616.23306743 C866.71986834 650.31647613 866.71536317 684.3998812 866.7066679 718.48328876 C866.7063869 719.58849572 866.70610591 720.69370267 866.7058164 721.83240075 C866.70123678 739.77948311 866.69635885 757.7265654 866.6914557 775.67364768 C866.67202945 846.85591897 866.6729337 918.03816017 866.69237804 989.22043133 C866.69726291 1007.16090994 866.70210716 1025.10138856 866.7066679 1043.04186726 C866.70694969 1044.1465684 866.70723149 1045.25126954 866.70752182 1046.38944648 C866.71614795 1080.43960157 866.7198034 1114.48975416 866.71806622 1148.53991032 C866.71801188 1149.60899501 866.71795754 1150.67807971 866.71790156 1151.77956091 C866.71665159 1175.24874552 866.71411692 1198.71792987 866.7104242 1222.18711422 C866.70910767 1230.58466614 866.70785534 1238.98221807 866.70662136 1247.37977001 C866.70631181 1249.4688068 866.70599688 1251.55784359 866.70567657 1253.64688039 C866.70090449 1284.85602355 866.70496352 1316.06515494 866.71507136 1347.27429664 C866.71540254 1348.29687131 866.71573373 1349.31944599 866.71607494 1350.37300777 C866.71640567 1351.39369091 866.7167364 1352.41437406 866.71707715 1353.46598699 C866.72811507 1387.90736504 866.72404132 1422.3487128 866.70295197 1456.79008652 C866.70074261 1460.49044432 866.69859578 1464.19080215 866.69649792 1467.89116001 C866.69571668 1469.2533319 866.69571668 1469.2533319 866.69491965 1470.64302241 C866.68703832 1485.00679878 866.69251425 1499.37053742 866.70357394 1513.73431038 C866.71417003 1527.86706048 866.71041361 1541.99974709 866.69151759 1556.13248916 C866.68086981 1564.41135701 866.68101876 1572.69005048 866.69744398 1580.96890987 C866.70842692 1587.12653398 866.69839933 1593.28396039 866.68041888 1599.44156429 C866.67640663 1601.90864786 866.67901125 1604.37575391 866.68924263 1606.84281953 C866.74661409 1621.73958483 865.62111658 1635.62006434 862.17089367 1650.12863445 C861.97651699 1650.95436508 861.78214031 1651.78009572 861.58187342 1652.63084849 C859.03675493 1663.31634119 855.39456127 1672.73456083 850.12450695 1682.37570477 C849.25986513 1683.96508732 848.43008151 1685.57331053 847.60448742 1687.18332195 C840.88221906 1700.11498806 831.56824108 1710.99788569 821.17089367 1721.12863445 C820.68233898 1721.67390789 820.19378429 1722.21918133 819.69042492 1722.7809782 C798.76542542 1745.36889157 764.5773566 1759.98515905 734.17089367 1762.12863445 C729.88059502 1762.26353606 725.59383175 1762.26655699 721.30166435 1762.26006222 C720.03182555 1762.26211485 718.76198674 1762.26416749 717.45366797 1762.26628232 C713.93876952 1762.27181681 710.42389558 1762.2711825 706.90899418 1762.26950473 C703.08109463 1762.2687708 699.25320183 1762.27380321 695.42530519 1762.27807975 C687.83744159 1762.28564459 680.24958503 1762.28785204 672.66171805 1762.2884088 C663.57088608 1762.28932395 654.48006059 1762.29599598 645.38923142 1762.30275563 C623.41836515 1762.31880281 601.44749957 1762.32471753 579.47662849 1762.32950438 C569.07890989 1762.33184169 558.68119184 1762.3354445 548.28347367 1762.33919975 C512.67738833 1762.35203435 477.07130329 1762.36275344 441.46521568 1762.36620235 C439.23076436 1762.36642399 436.99631303 1762.36664577 434.7618617 1762.36686771 C432.52207342 1762.36708835 430.28228514 1762.36730883 428.04249686 1762.36752915 C423.54924436 1762.3679717 419.05599187 1762.36841882 414.56273937 1762.36886883 C413.448677 1762.36897822 412.33461462 1762.36908761 411.18679278 1762.36920032 C375.07254413 1762.37283003 338.95831555 1762.3887473 302.84407458 1762.41205919 C264.64462599 1762.43667192 226.44518888 1762.45037587 188.24573213 1762.45157027 C184.04990597 1762.45174172 179.85407982 1762.45195715 175.65825367 1762.4522047 C174.62515485 1762.45226047 173.59205602 1762.45231624 172.52765118 1762.4523737 C155.92365954 1762.45352291 139.31968857 1762.46453384 122.7157039 1762.47909176 C106.01650097 1762.49347963 89.31732443 1762.49668083 72.618117 1762.48865178 C62.70662292 1762.48420628 52.79521425 1762.4880128 42.88373145 1762.50389029 C36.25055993 1762.51368058 29.61744788 1762.51242362 22.98427683 1762.50245406 C19.21306434 1762.49709107 15.44201516 1762.4962569 11.67081656 1762.50896278 C-28.26291397 1762.63505185 -28.26291397 1762.63505185 -46.64160633 1755.94113445 C-47.9345763 1755.48831097 -47.9345763 1755.48831097 -49.25366688 1755.02633953 C-57.47265329 1752.05898497 -65.22961991 1748.42986661 -72.82910633 1744.12863445 C-73.81620594 1743.57417645 -73.81620594 1743.57417645 -74.82324696 1743.00851727 C-85.56640588 1736.87920775 -94.77154336 1729.51774259 -103.82910633 1721.12863445 C-104.65926258 1720.3809782 -105.48941883 1719.63332195 -106.34473133 1718.86300945 C-130.00143384 1696.56784378 -146.77046815 1661.08275397 -147.92024667 1628.54982267 C-147.95716821 1625.79078873 -147.96292861 1623.03346587 -147.95675683 1620.27419221 C-147.95840761 1619.22036921 -147.96005839 1618.1665462 -147.96175919 1617.08078916 C-147.96607358 1613.54903199 -147.96328618 1610.01731673 -147.9605341 1606.48555851 C-147.96218423 1603.91719237 -147.96427073 1601.34882648 -147.9667542 1598.78046101 C-147.97145919 1593.17847698 -147.97245471 1587.57650177 -147.97102585 1581.97451608 C-147.96890252 1573.58803702 -147.97252116 1565.20156708 -147.97724063 1556.81508943 C-147.98511053 1542.5214071 -147.9882025 1528.22772726 -147.98868656 1513.93404293 C-147.98918897 1499.44778859 -147.99183604 1484.96153704 -147.99709415 1470.47528362 C-147.99742429 1469.56047325 -147.99775442 1468.64566287 -147.99809456 1467.70313097 C-147.99944456 1463.97726735 -148.00080722 1460.25140375 -148.00218666 1456.52554014 C-148.01848847 1412.4160666 -148.02487503 1368.30659359 -148.02963453 1324.19711755 C-148.03201764 1302.23534096 -148.03572108 1280.27356467 -148.03967163 1258.31178831 C-148.05233555 1187.87165984 -148.06311988 1117.43153138 -148.06651209 1046.99140178 C-148.06667433 1043.62484836 -148.06683989 1040.25829493 -148.06700647 1036.8917415 C-148.06734027 1030.14003749 -148.06767075 1023.38833348 -148.06800103 1016.63662946 C-148.06838793 1008.73198188 -148.06877754 1000.8273343 -148.0691721 992.92268671 C-148.06928452 990.66031075 -148.06939593 988.39793478 -148.06950635 986.13555882 C-148.07305641 913.46309715 -148.08813773 840.79064537 -148.11144409 768.11818748 C-148.12818457 715.89793873 -148.14366021 663.67769184 -148.14817905 611.45744038 C-148.14827254 610.38363579 -148.14836603 609.3098312 -148.14846234 608.20348707 C-148.15048134 584.63144094 -148.15163743 561.05939484 -148.15199093 537.48734863 C-148.1521271 529.05293497 -148.1523361 520.6185213 -148.15258418 512.18410764 C-148.15264574 510.08582036 -148.15270406 507.98753309 -148.15275913 505.88924581 C-148.15367908 472.44912117 -148.16364885 439.00900686 -148.17821662 405.56888562 C-148.1928297 371.89004885 -148.19787621 338.21122475 -148.18979708 304.53238538 C-148.1886817 299.87838749 -148.18767104 295.22438958 -148.18672276 290.57039165 C-148.18653279 289.6580835 -148.18634282 288.74577534 -148.1861471 287.80582148 C-148.18341361 273.36120612 -148.19075488 258.91661418 -148.20229612 244.47200391 C-148.21343557 230.26790411 -148.21386951 216.0638374 -148.20292594 201.85973709 C-148.19683128 193.53317467 -148.1989195 185.20671214 -148.21317791 176.88015914 C-148.22284869 170.69601439 -148.2168401 164.51197743 -148.20476758 158.32783898 C-148.20233324 155.84340573 -148.2049188 153.35896114 -148.21316406 150.87454038 C-148.33636137 111.13912743 -135.59687878 75.04541817 -107.82910633 46.12863445 C-107.06082508 45.3087907 -106.29254383 44.48894695 -105.50098133 43.64425945 C-77.72803137 14.79622755 -39.65164444 -0.06993922 0 0 Z " fill="#1C2A53" transform="translate(664.8291063308716,144.87136554718018)"/>
<path d="M0 0 C2.03620249 -0.37374616 2.03620249 -0.37374616 4.60054874 -0.3719368 C5.57578151 -0.37852664 6.55101427 -0.38511649 7.55579954 -0.39190602 C9.1743997 -0.37982142 9.1743997 -0.37982142 10.82569885 -0.36749268 C11.96601324 -0.37076152 13.10632764 -0.37403036 14.28119701 -0.37739825 C17.45591607 -0.38344096 20.63027878 -0.37595251 23.80496633 -0.36285591 C27.22489326 -0.35198934 30.64479235 -0.35836581 34.06472778 -0.36264038 C40.7678464 -0.36828372 47.47085097 -0.35794037 54.17395014 -0.34235242 C61.97242342 -0.32484841 69.77087432 -0.32339392 77.56936418 -0.32273683 C91.47880331 -0.32104743 105.38819034 -0.30521572 119.29760742 -0.28125 C132.80933057 -0.25798624 146.32102066 -0.24382484 159.83276367 -0.24023438 C160.66504459 -0.24001161 161.4973255 -0.23978884 162.35482705 -0.23955932 C164.03135479 -0.23911674 165.70788252 -0.23867471 167.38441026 -0.23823325 C168.6247982 -0.2379039 168.6247982 -0.2379039 169.89024448 -0.2375679 C170.71501855 -0.23735192 171.53979262 -0.23713593 172.38955984 -0.2369134 C185.24602207 -0.23321628 198.10247893 -0.22185668 210.95893528 -0.2094375 C215.62640386 -0.20499598 220.29387193 -0.2015603 224.96134181 -0.19881538 C232.36320422 -0.19439051 239.76504685 -0.18664406 247.16689677 -0.17204097 C250.55125844 -0.1654161 253.93560257 -0.16036519 257.31997108 -0.15958023 C260.98043522 -0.15784566 264.64083396 -0.14999237 268.30128479 -0.14044189 C269.92323103 -0.14174162 269.92323103 -0.14174162 271.57794386 -0.1430676 C272.55056888 -0.13922645 273.52319389 -0.13538531 274.5252924 -0.13142776 C275.37136431 -0.13018127 276.21743622 -0.12893477 277.08914667 -0.1276505 C279 0 279 0 280 1 C280.08775605 3.14558827 280.10695219 5.29404421 280.09765625 7.44140625 C280.09443359 8.74658203 280.09121094 10.05175781 280.08789062 11.39648438 C280.07953401 12.7851569 280.07106905 14.17382877 280.0625 15.5625 C280.05748666 16.95507656 280.05292347 18.34765481 280.04882812 19.74023438 C280.03699434 23.1601987 280.0205088 26.58007844 280 30 C281.01619919 29.98889694 282.03239838 29.97779388 283.07939148 29.96635437 C292.65794443 29.8649787 302.23638848 29.79003482 311.81535625 29.74093914 C316.74000603 29.71484976 321.6642226 29.67946371 326.58862305 29.62280273 C331.34135505 29.56845948 336.0936705 29.5385745 340.84668922 29.52561378 C342.65962087 29.51637805 344.47252982 29.49834248 346.28528404 29.47134972 C348.82569946 29.43502759 351.36439582 29.43005581 353.9050293 29.43237305 C355.02820557 29.40540848 355.02820557 29.40540848 356.17407227 29.37789917 C360.15636796 29.41717911 361.82002646 29.85261372 364.94343567 32.41047668 C369.38027151 37.99711927 368.40884513 44.20746316 367.66943359 51.06640625 C367.2213945 54.220123 366.71741642 57.35904086 366.1875 60.5 C366.02185547 61.55058594 365.85621094 62.60117187 365.68554688 63.68359375 C364.55281401 70.59967594 363.00372229 77.28560053 361 84 C360.78867432 84.70833984 360.57734863 85.41667969 360.35961914 86.14648438 C355.32528555 102.3813588 347.66903894 117.72670746 337 131 C336.30390625 131.8971875 335.6078125 132.794375 334.890625 133.71875 C309.42359092 165.86862281 272.01773515 185.80865225 232 193 C230.68 193 229.36 193 228 193 C227.77441406 193.54269531 227.54882812 194.08539062 227.31640625 194.64453125 C225.59960188 197.71643937 223.331115 200.13949765 220.9375 202.6875 C220.44217773 203.21786865 219.94685547 203.7482373 219.43652344 204.29467773 C218.4295465 205.36851665 217.41996575 206.43992018 216.40771484 207.50878906 C215.19391191 208.79458656 213.99580152 210.09516495 212.80078125 211.3984375 C198.40932671 226.58484858 177.91580063 239.67602215 157 242 C157.33 267.41 157.66 292.82 158 319 C165.92 320.485 165.92 320.485 174 322 C188.90374864 326.17304962 203.16930002 333.70758192 211.5 347.25 C214.38545031 352.38341741 216 356.00964322 216 362 C165.51 362 115.02 362 63 362 C63 351.48249368 67.48682481 345.88646363 74.55078125 338.35546875 C87.22991112 326.16166443 103.8248473 320.71751527 121 319 C121 293.92 121 268.84 121 243 C117.7 242.01 114.4 241.02 111 240 C86.76385864 231.3833819 64.30627835 214.45941752 50 193 C47.404614 192.38034037 44.94428692 191.930282 42.3125 191.5625 C11.98651799 186.6892521 -16.3665241 173.0959167 -38.81640625 152.0078125 C-41.01608181 149.93597301 -41.01608181 149.93597301 -43.578125 147.95703125 C-47.21158809 145.02095865 -50.03685836 141.59727701 -53 138 C-53.76570312 137.071875 -54.53140625 136.14375 -55.3203125 135.1875 C-66.83596346 120.74781228 -74.74806984 105.34431176 -81 88 C-81.40992188 86.88367188 -81.81984375 85.76734375 -82.2421875 84.6171875 C-86.70828769 71.35737065 -89.28931832 56.92643645 -89.5625 42.9375 C-89.58924805 42.20635986 -89.61599609 41.47521973 -89.64355469 40.72192383 C-89.61566597 36.78171273 -89.1206756 35.14688391 -86.58984375 32.06640625 C-82.45857062 28.7701114 -79.53943784 28.86167572 -74.42919922 28.88647461 C-73.25833267 28.88625557 -73.25833267 28.88625557 -72.06381226 28.8860321 C-69.47740931 28.88673014 -66.89107791 28.89451743 -64.3046875 28.90234375 C-62.51392659 28.90420832 -60.72316517 28.90563204 -58.93240356 28.90663147 C-54.21415809 28.91045359 -49.4959433 28.92028129 -44.77770996 28.93133545 C-39.96509211 28.94155611 -35.15246932 28.9461305 -30.33984375 28.95117188 C-20.89321567 28.96190381 -11.44661038 28.9789766 -2 29 C-2.01047363 28.22809326 -2.02094727 27.45618652 -2.03173828 26.66088867 C-2.07326454 23.16979212 -2.09931557 19.67874751 -2.125 16.1875 C-2.14175781 14.97255859 -2.15851563 13.75761719 -2.17578125 12.50585938 C-2.18222656 11.34248047 -2.18867187 10.17910156 -2.1953125 8.98046875 C-2.20578613 7.90692139 -2.21625977 6.83337402 -2.22705078 5.72729492 C-2 3 -2 3 0 0 Z " fill="#C7D2EC" transform="translate(884,637)"/>
<path d="M0 0 C9.97192748 -0.16359063 19.94352577 -0.28726822 29.91653156 -0.3626852 C34.54957947 -0.39891764 39.18169659 -0.44790284 43.81420898 -0.52807617 C48.3012142 -0.60522799 52.78733555 -0.64621438 57.27495384 -0.6641407 C58.97032748 -0.67688259 60.66566348 -0.70175204 62.36065102 -0.7401104 C79.9043237 -1.12063278 95.53310239 3.44379042 109 15 C109.72316406 15.56460937 110.44632813 16.12921875 111.19140625 16.7109375 C123.06390589 26.30806245 130.06123918 41.23000578 133 56 C133.36503848 60.07471717 133.37730996 64.09928749 133.3125 68.1875 C133.31572266 69.21552734 133.31894531 70.24355469 133.32226562 71.30273438 C133.20264492 88.29974881 125.93281466 103.99322773 114.25 116.25 C97.88757863 131.84620526 77.93836651 136.52311442 55.98046875 136.29296875 C54.38479516 136.28735791 52.78911632 136.28309487 51.19343567 136.28010559 C47.03910486 136.26877365 42.8851 136.23941032 38.730896 136.20599365 C34.47363694 136.17503808 30.21632407 136.16154638 25.95898438 136.14648438 C17.63917507 136.11452655 9.31962833 136.06347565 1 136 C2.734978 132.45973273 4.72111916 129.13146806 6.75 125.75 C10.80757342 118.76277735 13.83502905 111.633081 16.35058594 103.96191406 C16.95117917 102.1474903 17.60237123 100.35002662 18.2578125 98.5546875 C26.28974298 72.99854505 21.88413424 41.44840735 9.97265625 17.90625 C7.39387971 12.96553637 4.64524663 8.12525927 1.87939453 3.28735352 C1.25919434 2.20252686 0.63899414 1.1177002 0 0 Z " fill="#4F608E" transform="translate(1115,1234)"/>
<path d="M0 0 C1.68392253 0.00748165 3.3678539 0.01316545 5.05178833 0.01715088 C9.43472309 0.03225619 13.81710813 0.07140288 18.1998291 0.1159668 C22.69173755 0.15725009 27.18373684 0.1752317 31.67578125 0.1953125 C40.45337428 0.23791581 49.23052457 0.30597792 58.0078125 0.390625 C57.60015656 1.13610596 57.19250061 1.88158691 56.77249146 2.6496582 C56.23542572 3.63281006 55.69835999 4.61596191 55.14501953 5.62890625 C54.61361359 6.60126221 54.08220764 7.57361816 53.53469849 8.57543945 C37.50315436 38.1334888 31.82052233 68.18029303 41.07421875 101.1953125 C44.44201497 112.06562504 49.27481994 121.8879766 55.12915039 131.61010742 C55.66850723 132.50654465 56.20786407 133.40298187 56.76356506 134.32658386 C57.17416672 135.00771744 57.58476837 135.68885101 58.0078125 136.390625 C48.61853871 136.48393744 39.2294283 136.55469689 29.83978939 136.59787369 C25.47822956 136.61861247 21.11699052 136.64667408 16.75561523 136.69238281 C12.53452536 136.73633669 8.31374099 136.75986471 4.09243965 136.77013397 C2.49433149 136.77743765 0.89623712 136.7916954 -0.70173836 136.81354523 C-21.22258386 137.08258213 -39.63293392 131.50217034 -55.01171875 117.4140625 C-62.70751303 109.90296728 -68.28815879 100.44234212 -71.9921875 90.390625 C-72.31058594 89.53984375 -72.62898437 88.6890625 -72.95703125 87.8125 C-78.08500116 71.2706616 -76.25804419 52.17626081 -68.30712891 36.95361328 C-58.90120224 19.94230996 -44.22153881 8.07790633 -25.72607422 2.24316406 C-17.12711297 -0.14054169 -8.86800056 -0.11751543 0 0 Z " fill="#4E608E" transform="translate(873.9921875,1233.609375)"/>
<path d="M0 0 C2 2 2 2 2.24609566 3.96400642 C2.24333028 5.17800778 2.24333028 5.17800778 2.24050903 6.41653442 C2.24325836 7.3448407 2.24600769 8.27314697 2.24884033 9.22958374 C2.24164978 10.25097443 2.23445923 11.27236511 2.22705078 12.32470703 C2.22734283 13.39789185 2.22763489 14.47107666 2.22793579 15.57678223 C2.22653831 19.13720685 2.21095737 22.69742427 2.1953125 26.2578125 C2.19158386 28.72118007 2.18873619 31.18454912 2.18673706 33.6479187 C2.17908889 40.14170401 2.15943023 46.63540032 2.1373291 53.12915039 C2.11689614 59.75145259 2.10774081 66.37376913 2.09765625 72.99609375 C2.07618547 85.99743388 2.04241797 98.99871221 2 112 C2.62044189 111.98428955 3.24088379 111.9685791 3.88012695 111.95239258 C6.69082528 111.89003786 9.50137812 111.85100852 12.3125 111.8125 C13.28896484 111.78736328 14.26542969 111.76222656 15.27148438 111.73632812 C16.67817383 111.72182617 16.67817383 111.72182617 18.11328125 111.70703125 C19.40939331 111.68346558 19.40939331 111.68346558 20.73168945 111.65942383 C23.4854739 112.07289162 24.3466417 112.79867791 26 115 C26.37231445 117.23657227 26.37231445 117.23657227 26.36328125 119.81640625 C26.36231445 121.20956055 26.36231445 121.20956055 26.36132812 122.63085938 C26.34521484 123.59830078 26.32910156 124.56574219 26.3125 125.5625 C26.31572266 126.53380859 26.31894531 127.50511719 26.32226562 128.50585938 C26.26702009 135.73297991 26.26702009 135.73297991 24 138 C21.57723655 138.203378 19.26826281 138.28325341 16.84399414 138.2746582 C16.1072496 138.27976913 15.37050507 138.28488007 14.61143494 138.29014587 C12.16926004 138.30407758 9.72736623 138.30308242 7.28515625 138.30078125 C5.59126174 138.30466631 3.89736821 138.30900059 2.20347595 138.31376648 C-1.34997717 138.32123645 -4.90333094 138.32093189 -8.45678711 138.31567383 C-13.01458981 138.30987911 -17.57198615 138.3268063 -22.12972164 138.3500185 C-25.62897629 138.36473795 -29.12813268 138.36562998 -32.6274128 138.36250877 C-34.30796679 138.36302292 -35.98852615 138.36827815 -37.66905022 138.37832069 C-40.01783655 138.39063302 -42.3658264 138.38392531 -44.71459961 138.37231445 C-45.41132782 138.37995819 -46.10805603 138.38760193 -46.82589722 138.39547729 C-49.69769024 138.36403768 -51.56133708 138.31580056 -53.93107605 136.60978699 C-55.35573364 134.46426929 -55.38762711 133.00316663 -55.3984375 130.4375 C-55.40230469 129.55835938 -55.40617188 128.67921875 -55.41015625 127.7734375 C-55.39855469 126.85820313 -55.38695312 125.94296875 -55.375 125 C-55.38660156 124.08476563 -55.39820313 123.16953125 -55.41015625 122.2265625 C-55.40628906 121.34742188 -55.40242187 120.46828125 -55.3984375 119.5625 C-55.39505371 118.75941406 -55.39166992 117.95632813 -55.38818359 117.12890625 C-55 115 -55 115 -52 112 C-44.74 112 -37.48 112 -30 112 C-30 85.27 -30 58.54 -30 31 C-35.28 32.98 -40.56 34.96 -46 37 C-49.465 37.495 -49.465 37.495 -53 38 C-56.29230693 30.77610324 -57.97343476 23.86132853 -59 16 C-40.91372503 4.25036531 -22.00627639 -3.98638087 0 0 Z " fill="#1B2C52" transform="translate(1038,689)"/>
<path d="M0 0 C21.45 0 42.9 0 65 0 C67.75 19 67.75 19 68.58886719 24.88671875 C70.12951321 35.46127008 72.18505249 45.68842626 75 56 C75.44581421 57.70736328 75.44581421 57.70736328 75.90063477 59.44921875 C80.15994092 75.62480279 85.81697683 91.89531999 93.78515625 106.62109375 C95 109 95 109 95 111 C87.98505407 109.70646387 82.08471975 107.49855542 75.6875 104.375 C74.76469238 103.92842041 73.84188477 103.48184082 72.89111328 103.02172852 C65.82195457 99.53685321 59.30018824 95.76286686 53 91 C52.11828125 90.33871094 51.2365625 89.67742187 50.328125 88.99609375 C23.60601236 68.0277308 4.65563917 39.05448024 0 5 C0 3.35 0 1.7 0 0 Z " fill="#1D2C54" transform="translate(820,690)"/>
<path d="M0 0 C21.45 0 42.9 0 65 0 C63.87223679 11.27763207 63.87223679 11.27763207 62.8359375 15.0078125 C62.60463135 15.84135254 62.3733252 16.67489258 62.13500977 17.53369141 C61.88420654 18.38882324 61.63340332 19.24395508 61.375 20.125 C61.11066162 21.0329834 60.84632324 21.9409668 60.57397461 22.87646484 C50.5469234 56.22966527 27.61013393 83.27176288 -2.61328125 100.30078125 C-21.55873509 109.80628577 -21.55873509 109.80628577 -30 111 C-28.63043351 106.6345068 -26.92726994 102.58391008 -25 98.4375 C-10.8698331 66.83397025 -4.86488083 34.05416578 0 0 Z " fill="#1D2D55" transform="translate(1162,690)"/>
<path d="M0 0 C1.40185547 0.00966797 1.40185547 0.00966797 2.83203125 0.01953125 C4.28416016 0.04466797 4.28416016 0.04466797 5.765625 0.0703125 C6.74917969 0.07933594 7.73273438 0.08835937 8.74609375 0.09765625 C11.16951907 0.12118465 13.59244722 0.15405882 16.015625 0.1953125 C17.49766279 3.15938809 17.13483326 5.81610415 17.12915039 9.12353516 C17.12929642 9.83583786 17.12944244 10.54814056 17.1295929 11.2820282 C17.12889511 13.64117456 17.12110897 16.00024239 17.11328125 18.359375 C17.1114166 19.99319414 17.10999292 21.62701384 17.10899353 23.26083374 C17.10517209 27.5647943 17.09534498 31.86872121 17.08428955 36.17266846 C17.07406742 40.56302434 17.06949419 44.95338565 17.06445312 49.34375 C17.05372239 57.96095296 17.03665043 66.57812854 17.015625 75.1953125 C18.07523438 75.17210937 19.13484375 75.14890625 20.2265625 75.125 C21.6145763 75.10624306 23.0025977 75.08804278 24.390625 75.0703125 C25.08929687 75.05355469 25.78796875 75.03679687 26.5078125 75.01953125 C28.34459986 75.00186983 30.18164463 75.09227989 32.015625 75.1953125 C34.49851336 77.67820086 34.30145667 79.20717406 34.33789062 82.60546875 C34.33466797 83.29511719 34.33144531 83.98476562 34.328125 84.6953125 C34.34423828 85.38496094 34.36035156 86.07460937 34.37695312 86.78515625 C34.37890625 88.7890625 34.37890625 88.7890625 34.015625 92.1953125 C30.73543827 94.38210365 29.75528311 94.45065926 25.94921875 94.4699707 C24.91804932 94.47950272 23.88687988 94.48903473 22.82446289 94.49885559 C21.15565063 94.49748848 21.15565063 94.49748848 19.453125 94.49609375 C18.31029053 94.50037888 17.16745605 94.504664 15.98999023 94.50907898 C13.57243513 94.51482494 11.15486273 94.5153206 8.73730469 94.51098633 C5.03030051 94.50782502 1.32409303 94.53128795 -2.3828125 94.55664062 C-4.72916566 94.55891337 -7.07552097 94.55961723 -9.421875 94.55859375 C-10.5344165 94.5678035 -11.64695801 94.57701324 -12.79321289 94.58650208 C-13.82438232 94.58027328 -14.85555176 94.57404449 -15.91796875 94.56762695 C-16.82603271 94.56825638 -17.73409668 94.5688858 -18.66967773 94.5695343 C-20.984375 94.1953125 -20.984375 94.1953125 -22.77832031 92.87736511 C-24.75339999 90.12277366 -24.34146122 87.44934114 -24.296875 84.1328125 C-24.29107422 82.25916016 -24.29107422 82.25916016 -24.28515625 80.34765625 C-23.984375 77.1953125 -23.984375 77.1953125 -21.984375 75.1953125 C-16.704375 75.1953125 -11.424375 75.1953125 -5.984375 75.1953125 C-5.984375 57.7053125 -5.984375 40.2153125 -5.984375 22.1953125 C-10.934375 23.6803125 -10.934375 23.6803125 -15.984375 25.1953125 C-19.609375 25.3828125 -19.609375 25.3828125 -21.984375 25.1953125 C-25.17247827 20.01464469 -25.26982291 16.05036613 -24.984375 10.1953125 C-19.65104167 7.52864583 -14.31770833 4.86197917 -8.984375 2.1953125 C-8.34693359 1.82921875 -7.70949219 1.463125 -7.05273438 1.0859375 C-4.55697206 0.01127497 -2.71111938 -0.03306243 0 0 Z " fill="#C9D4EC" transform="translate(1018.984375,1249.8046875)"/>
<path d="M0 0 C1.0613768 -0.00945648 2.1227536 -0.01891296 3.21629333 -0.02865601 C4.35284866 -0.02258331 5.48940399 -0.01651062 6.66040039 -0.01025391 C7.83768204 -0.01312408 9.01496368 -0.01599426 10.22792053 -0.01895142 C12.71510296 -0.02099091 15.20230147 -0.01546914 17.68945312 -0.00292969 C21.49068205 0.01311028 25.29084535 -0.00277594 29.09204102 -0.02197266 C31.51066315 -0.01998992 33.92928462 -0.01614563 36.34790039 -0.01025391 C38.04969704 -0.01936295 38.04969704 -0.01936295 39.78587341 -0.02865601 C45.42508633 0.02143856 49.7616801 0.08494751 54.57055664 3.38818359 C59.58192686 8.94132356 59.58192686 8.94132356 59.55493164 12.37646484 C59.08677511 17.01901708 58.69816489 20.72133255 55.57055664 24.38818359 C49.79699067 28.37145894 43.6889763 27.85577779 36.94555664 27.85693359 C35.72529785 27.86454712 34.50503906 27.87216064 33.24780273 27.88000488 C30.67246544 27.89079172 28.09708446 27.89366478 25.52172852 27.88916016 C21.58413837 27.88818695 17.6484911 27.9298485 13.71118164 27.97412109 C11.20597736 27.97932759 8.70076633 27.9820163 6.19555664 27.98193359 C5.02041504 27.99832886 3.84527344 28.01472412 2.63452148 28.03161621 C-6.46455845 27.95473664 -6.46455845 27.95473664 -10.13256836 24.99560547 C-13.93539449 20.67862173 -14.91039831 17.19442508 -14.74584961 11.38037109 C-14.20738808 7.99005774 -12.63245151 5.94843631 -10.42944336 3.38818359 C-6.84258984 0.830592 -4.38652265 0.01125645 0 0 Z " fill="#F8FAFB" transform="translate(1385.429443359375,214.61181640625)"/>
<path d="M0 0 C1.45537192 0.09309245 2.91496185 0.12373793 4.37330788 0.12304783 C5.2999466 0.1250389 6.22658533 0.12702996 7.18130401 0.12908137 C8.20816942 0.12616851 9.23503484 0.12325565 10.29301739 0.12025452 C11.9257721 0.12153589 11.9257721 0.12153589 13.59151176 0.12284315 C17.28243415 0.12450303 20.97331205 0.11896011 24.66423035 0.11352539 C27.31988814 0.11324568 29.97554316 0.11336431 32.63120061 0.11397648 C38.42782283 0.11451085 44.22443389 0.1113248 50.02105331 0.10574722 C58.6412943 0.09747605 67.26153021 0.09492777 75.88177473 0.09362289 C90.3843684 0.09128449 104.8869566 0.08442538 119.38954735 0.07516479 C139.20366004 0.06257333 159.01777089 0.05652178 178.83188692 0.05223143 C188.05892389 0.05022476 197.28596076 0.0478973 206.51299763 0.04548645 C207.4368413 0.04524544 208.36068498 0.04500442 209.31252391 0.04475611 C231.31764382 0.03894085 253.32276227 0.02998516 275.32788086 0.02050781 C276.29102208 0.02009417 277.2541633 0.01968052 278.24649062 0.01925434 C293.87100494 0.01253965 309.49551917 0.00563506 325.12003338 -0.001302 C339.73912053 -0.00779178 354.35820769 -0.01421636 368.97729492 -0.02050781 C369.93794604 -0.0209224 370.89859716 -0.02133699 371.88835891 -0.02176414 C393.82846942 -0.03121582 415.76857977 -0.03976483 437.7086916 -0.04548645 C438.63140813 -0.04572744 439.55412467 -0.04596844 440.50480231 -0.04621673 C449.71819484 -0.04860245 458.9315874 -0.05083034 468.14498002 -0.05282298 C487.9312853 -0.05713708 507.71758413 -0.06420567 527.50388593 -0.07687083 C541.93665403 -0.08606693 556.36941996 -0.09181349 570.80219086 -0.09398818 C579.37292058 -0.09540053 587.94363814 -0.09964019 596.51436401 -0.10793434 C602.24644428 -0.11320789 607.97851817 -0.11481598 613.71060069 -0.11350765 C616.9721745 -0.11286936 620.23372207 -0.11434325 623.49529292 -0.1192044 C636.03537944 -0.13702308 648.50290865 -0.13910566 661 1 C661 1.33 661 1.66 661 2 C433.96 2 206.92 2 -27 2 C-26.67 1.34 -26.34 0.68 -26 0 C-23.4500259 -0.31837132 -20.99807001 -0.51476918 -18.4375 -0.625 C-17.74591797 -0.66367188 -17.05433594 -0.70234375 -16.34179688 -0.7421875 C-2.88862078 -1.44431039 -2.88862078 -1.44431039 0 0 Z " fill="#202B45" transform="translate(738,1905)"/>
<path d="M0 0 C5.89073302 0.0764038 9.61675622 1.35729481 13.9375 5.375 C18.39703427 10.2804877 19.48340475 14.62551007 19.30859375 21.17578125 C18.9375 23.375 18.9375 23.375 16.9375 26.375 C13.0625 25.5 13.0625 25.5 11.9375 24.375 C11.4425 25.86 11.4425 25.86 10.9375 27.375 C10.2775 27.375 9.6175 27.375 8.9375 27.375 C8.6075 27.045 8.2775 26.715 7.9375 26.375 C7.97875 27.15875 8.02 27.9425 8.0625 28.75 C7.9375 31.375 7.9375 31.375 5.9375 33.375 C3.5 33.4375 3.5 33.4375 0.9375 32.375 C-0.875 28.8125 -0.875 28.8125 -2.0625 25.375 C-2.619375 26.2 -3.17625 27.025 -3.75 27.875 C-6.0625 30.375 -6.0625 30.375 -8.5625 30.75 C-11.0625 30.375 -11.0625 30.375 -13.0625 29.8125 C-15.61105301 29.25500403 -17.53898397 29.82937491 -20.0625 30.375 C-21.97651523 28.46098477 -21.32439296 25.23649652 -21.375 22.6875 C-21.32217054 15.26118672 -20.34610291 12.65860291 -15.1875 7.5 C-12.38378484 6.01568021 -10.18549996 6.16206818 -7.0625 6.375 C-6.918125 5.570625 -6.77375 4.76625 -6.625 3.9375 C-5.68012541 -0.36692869 -4.14161334 0.14811822 0 0 Z " fill="#232E52" transform="translate(1331.0625,211.625)"/>
<path d="M0 0 C3.58210348 2.36950886 7.05546938 5.11093875 9 9 C9.38893819 13.66725826 9.45147837 16.07967871 7.375 20.3125 C3.76002316 24.40313168 0.8087627 25.84407218 -4.625 26.3125 C-7.69929985 26.02784261 -9.43646366 25.64066326 -12 24 C-12 23.34 -12 22.68 -12 22 C-12.99 21.67 -13.98 21.34 -15 21 C-17.64256815 16.92492858 -17.8065516 12.70081087 -17 8 C-15.33797623 4.86797912 -13.01036237 2.7664818 -10.1875 0.625 C-6.64836567 -0.38618124 -3.57344003 -0.86921514 0 0 Z " fill="#374874" transform="translate(1028,1786)"/>
<path d="M0 0 C3.62081442 3.05757662 6.57016927 5.63181611 7.0078125 10.5859375 C6.76898145 14.81465203 6.1648195 16.92745901 3.5 20.3125 C-0.75233786 23.57592208 -3.51753758 24.94673612 -9.0859375 24.83203125 C-12.96675451 23.98806175 -15.68321469 21.35836598 -18.1875 18.375 C-19.54562586 14.30062242 -19.84115174 10.63099909 -19.1875 6.375 C-17.52466405 3.22226305 -15.18581113 1.10709483 -12.3125 -1 C-7.68795416 -2.36016054 -4.29712534 -2.19069135 0 0 Z " fill="#F7F9FB" transform="translate(1149.1875,1787.625)"/>
<path d="M0 0 C4.62504462 1.72305584 7.59171337 3.64655879 10 8 C10.7402381 12.13703163 10.98311313 16.09983273 9.01171875 19.91015625 C6.78724999 22.71312462 4.44906296 25.01455344 1 26 C-4.31237628 26.42161717 -7.73772763 26.53159711 -12 23 C-15.32390218 19.21762856 -15.61972714 15.37705646 -15.49609375 10.51171875 C-14.66789838 6.31857211 -12.19763024 3.70887329 -9 1 C-5.92805092 -0.53597454 -3.39755707 -0.2265038 0 0 Z " fill="#F7FAFB" transform="translate(908,1786)"/>
<path d="M0 0 C3.29110633 2.10070617 4.8333853 3.75007795 7 7 C7.66175067 11.04712777 7.94221821 15.22065714 5.984375 18.91796875 C3.9184549 21.43814237 1.70663284 23.19557811 -1 25 C-6.34635097 25.43115734 -9.67965526 25.48027771 -14 22 C-16.55344249 19.72260535 -17.80915436 18.05671938 -18.421875 14.6640625 C-18.65858664 10.28489719 -18.53918085 7.01454058 -15.75 3.5 C-10.54584129 -1.23105337 -6.7323415 -1.68308538 0 0 Z " fill="#A3B4D8" transform="translate(1089,1787)"/>
<path d="M0 0 C3.92380311 2.11281706 6.64141507 4.22762353 9 8 C9.84166886 12.66330042 9.66948728 16.74136392 7.4375 20.9375 C3.30777603 24.43188182 -0.17661494 26.03143767 -5.625 25.9375 C-10.6433057 24.54352619 -13.14285308 22.28572038 -16 18 C-16.69084802 13.26046123 -16.72010368 9.25351381 -14.3125 5.0625 C-9.59886847 0.85845026 -6.46027452 -0.79336705 0 0 Z " fill="#3B4B75" transform="translate(968,1786)"/>
<path d="M0 0 C5.89073302 0.0764038 9.61675622 1.35729481 13.9375 5.375 C18.39703427 10.2804877 19.48340475 14.62551007 19.30859375 21.17578125 C18.9375 23.375 18.9375 23.375 16.9375 26.375 C15.6175 26.045 14.2975 25.715 12.9375 25.375 C12.91171875 24.49457031 12.8859375 23.61414063 12.859375 22.70703125 C12.80265625 21.54558594 12.7459375 20.38414062 12.6875 19.1875 C12.64109375 18.03894531 12.5946875 16.89039063 12.546875 15.70703125 C11.84146417 11.84988103 10.64304546 10.16130801 7.9375 7.375 C3.68772527 4.89596474 -0.27689138 5.21277598 -5.0625 5.375 C-5.0625 7.025 -5.0625 8.675 -5.0625 10.375 C-5.62839844 10.65214844 -6.19429687 10.92929688 -6.77734375 11.21484375 C-7.51082031 11.57707031 -8.24429687 11.93929687 -9 12.3125 C-9.73089844 12.67214844 -10.46179687 13.03179687 -11.21484375 13.40234375 C-13.02499027 14.23871827 -13.02499027 14.23871827 -14.0625 15.375 C-14.29777773 17.72487262 -14.47636417 20.08056039 -14.625 22.4375 C-14.70878906 23.72785156 -14.79257813 25.01820313 -14.87890625 26.34765625 C-14.93949219 27.34667969 -15.00007813 28.34570312 -15.0625 29.375 C-16.71864657 29.75718767 -18.38707024 30.08895102 -20.0625 30.375 C-21.97651523 28.46098477 -21.32439296 25.23649652 -21.375 22.6875 C-21.32217054 15.26118672 -20.34610291 12.65860291 -15.1875 7.5 C-12.38378484 6.01568021 -10.18549996 6.16206818 -7.0625 6.375 C-6.918125 5.570625 -6.77375 4.76625 -6.625 3.9375 C-5.68012541 -0.36692869 -4.14161334 0.14811822 0 0 Z " fill="#E1E7EF" transform="translate(1331.0625,211.625)"/>
<path d="M0 0 C73.92 0 147.84 0 224 0 C224 0.33 224 0.66 224 1 C209.51310754 2.27619755 195.02187391 2.1149416 180.49171591 2.06846237 C176.86420353 2.05828196 173.236685 2.054928 169.60916138 2.05102539 C158.83384584 2.03817583 148.0585588 2.01397448 137.28326416 1.98962402 C127.49392832 1.96770385 117.70459803 1.94986193 107.9152422 1.93984985 C106.42479084 1.9382832 104.93433964 1.93655385 103.44388866 1.93466187 C80.31617508 1.90589196 57.20875684 2.12603045 34.08737183 2.73217773 C22.65910205 3.01562474 11.39794132 2.924063 0 2 C0 1.34 0 0.68 0 0 Z " fill="#222D48" transform="translate(936,145)"/>
<path d="M0 0 C0.33 1.32 0.66 2.64 1 4 C0.43410156 4.27714844 -0.13179687 4.55429688 -0.71484375 4.83984375 C-1.44832031 5.20207031 -2.18179687 5.56429687 -2.9375 5.9375 C-3.66839844 6.29714844 -4.39929687 6.65679687 -5.15234375 7.02734375 C-6.96249027 7.86371827 -6.96249027 7.86371827 -8 9 C-8.23527773 11.34987262 -8.41386417 13.70556039 -8.5625 16.0625 C-8.64628906 17.35285156 -8.73007813 18.64320313 -8.81640625 19.97265625 C-8.87699219 20.97167969 -8.93757813 21.97070312 -9 23 C-10.65614657 23.38218767 -12.32457024 23.71395102 -14 24 C-15.91401523 22.08598477 -15.26189296 18.86149652 -15.3125 16.3125 C-15.27056209 10.41722833 -15.12209199 7.23659454 -11 3 C-10.401875 2.38125 -9.80375 1.7625 -9.1875 1.125 C-6.0898942 -0.46805441 -3.42347174 -0.19750798 0 0 Z " fill="#F2F5F8" transform="translate(1325,218)"/>
<path d="M0 0 C1.84927555 3.6985511 2.24852173 4.76389521 2.22705078 8.61328125 C2.22689972 9.52102295 2.22674866 10.42876465 2.22659302 11.36401367 C2.21627045 12.33701416 2.20594788 13.31001465 2.1953125 14.3125 C2.1924826 15.31837158 2.18965271 16.32424316 2.18673706 17.3605957 C2.17555136 20.57385187 2.15047085 23.7868284 2.125 27 C2.11496623 29.16405843 2.10584107 31.32812128 2.09765625 33.4921875 C2.07800192 38.26139226 2.04958968 43.03045322 2.01345825 47.79956055 C1.99354322 51.05569075 2.00305962 54.31038177 2.03515625 57.56640625 C2.04417969 58.88511719 2.05320312 60.20382812 2.0625 61.5625 C2.07087891 62.23474609 2.07925781 62.90699219 2.08789062 63.59960938 C2.10321558 66.68605627 1.98420287 69.04739138 1 72 C4.63 72 8.26 72 12 72 C12 72.33 12 72.66 12 73 C6.06 73.495 6.06 73.495 0 74 C0 49.58 0 25.16 0 0 Z " fill="#0C1A3D" transform="translate(1036,1251)"/>
<path d="M0 0 C2.375 0.6875 2.375 0.6875 3.375 1.6875 C3.5625 5.125 3.5625 5.125 3.375 8.6875 C1.375 10.6875 1.375 10.6875 -1.0625 11 C-3.625 10.6875 -3.625 10.6875 -5.5 9.5625 C-6.625 7.6875 -6.625 7.6875 -6.5 4.625 C-5.35850561 0.79284025 -4.08129286 -0.4858682 0 0 Z " fill="#EBF0F4" transform="translate(1300.625,231.3125)"/>
<path d="M0 0 C0.9796875 0.01417969 1.959375 0.02835938 2.96875 0.04296875 C3.9484375 0.04941406 4.928125 0.05585938 5.9375 0.0625 C8.46875 0.23046875 8.46875 0.23046875 10.46875 1.23046875 C9.80875 2.55046875 9.14875 3.87046875 8.46875 5.23046875 C4.83875 5.23046875 1.20875 5.23046875 -2.53125 5.23046875 C-2.86125 5.89046875 -3.19125 6.55046875 -3.53125 7.23046875 C-4.15625 4.85546875 -4.15625 4.85546875 -4.53125 2.23046875 C-2.53125 0.23046875 -2.53125 0.23046875 0 0 Z " fill="#E9EDF5" transform="translate(1328.53125,211.76953125)"/>
<path d="M0 0 C4.875 0.875 4.875 0.875 6 2 C6.1875 4.4375 6.1875 4.4375 6 7 C5.34 7.66 4.68 8.32 4 9 C1.375 8.625 1.375 8.625 -1 8 C-1.625 5.6875 -1.625 5.6875 -2 3 C-1.34 2.01 -0.68 1.02 0 0 Z " fill="#E5ECF3" transform="translate(1333,236)"/>
<path d="M0 0 C0.625 2.375 0.625 2.375 1 5 C-1 7 -1 7 -3.5625 7.1875 C-6 7 -6 7 -7 6 C-7.04080783 4.00041636 -7.04254356 1.99954746 -7 0 C-4.3333581 -1.33332095 -2.83319697 -0.67102033 0 0 Z " fill="#EDF1F5" transform="translate(1327,234)"/>
<path d="M0 0 C0.70213623 0.15847412 1.40427246 0.31694824 2.12768555 0.48022461 C5.10447541 1.01890592 7.93483803 1.20791726 10.95703125 1.31640625 C12.62475586 1.37924805 12.62475586 1.37924805 14.32617188 1.44335938 C15.47666016 1.48267578 16.62714844 1.52199219 17.8125 1.5625 C18.98232422 1.60568359 20.15214844 1.64886719 21.35742188 1.69335938 C24.23817031 1.79918279 27.11900123 1.90126825 30 2 C30 2.33 30 2.66 30 3 C20.1 3 10.2 3 0 3 C0 2.01 0 1.02 0 0 Z " fill="#101D3D" transform="translate(986,824)"/>
<path d="M0 0 C0.66 0 1.32 0 2 0 C2 0.66 2 1.32 2 2 C3.32 2.33 4.64 2.66 6 3 C5.195625 3.61875 4.39125 4.2375 3.5625 4.875 C0.96125481 6.74164041 0.96125481 6.74164041 0 9 C-0.66 9 -1.32 9 -2 9 C-2.6875 7.3125 -2.6875 7.3125 -3 5 C-1.6875 2.25 -1.6875 2.25 0 0 Z " fill="#253251" transform="translate(1131,1785)"/>
<path d="M0 0 C0.33 0 0.66 0 1 0 C1.44701413 7.56198897 1.53574091 12.76335625 -3 19 C-3.33 19 -3.66 19 -4 19 C-4.144375 17.88625 -4.28875 16.7725 -4.4375 15.625 C-4.78372035 12.17857953 -4.78372035 12.17857953 -6 10 C-5.01 10.33 -4.02 10.66 -3 11 C-3 11.66 -3 12.32 -3 13 C-2.34 13 -1.68 13 -1 13 C-0.67 8.71 -0.34 4.42 0 0 Z " fill="#182241" transform="translate(1343,226)"/>
<path d="M0 0 C0 1.65 0 3.3 0 5 C-1.13179687 5.06058594 -2.26359375 5.12117188 -3.4296875 5.18359375 C-4.91147145 5.26799917 -6.3932416 5.35264717 -7.875 5.4375 C-8.99455078 5.49647461 -8.99455078 5.49647461 -10.13671875 5.55664062 C-14.19986864 5.71573624 -14.19986864 5.71573624 -18 7 C-17.67 6.01 -17.34 5.02 -17 4 C-15.77023437 3.94392578 -15.77023437 3.94392578 -14.515625 3.88671875 C-13.43796875 3.82097656 -12.3603125 3.75523438 -11.25 3.6875 C-10.18265625 3.62949219 -9.1153125 3.57148437 -8.015625 3.51171875 C-5.10333817 3.01753536 -2.46866601 0 0 0 Z " fill="#121F40" transform="translate(1013,1320)"/>
<path d="M0 0 C0 0.33 0 0.66 0 1 C-7.05453001 2.20443195 -13.83437211 3.28100502 -21 3 C-21 2.34 -21 1.68 -21 1 C-13.97195301 0.14626761 -7.07721931 -0.12109311 0 0 Z " fill="#2D3956" transform="translate(1397,145)"/>
<path d="M0 0 C-2.93189994 2.39073149 -5.72143288 3.84107307 -9.25 5.1875 C-10.58804688 5.70376953 -10.58804688 5.70376953 -11.953125 6.23046875 C-12.62859375 6.48441406 -13.3040625 6.73835937 -14 7 C-14.66 6.34 -15.32 5.68 -16 5 C-14.27656245 4.15488176 -12.54595947 3.32436646 -10.8125 2.5 C-9.36810547 1.80390625 -9.36810547 1.80390625 -7.89453125 1.09375 C-5.01077307 0.00407079 -3.04645139 -0.22277524 0 0 Z " fill="#2A385A" transform="translate(1010,692)"/>
<path d="M0 0 C0.99 0.33 1.98 0.66 3 1 C1.2335343 2.0076952 -0.53833823 3.00591714 -2.3125 4 C-3.79169922 4.8353125 -3.79169922 4.8353125 -5.30078125 5.6875 C-8 7 -8 7 -11 7 C-11 6.34 -11 5.68 -11 5 C-9.93458984 4.58427734 -9.93458984 4.58427734 -8.84765625 4.16015625 C-7.46900391 3.61681641 -7.46900391 3.61681641 -6.0625 3.0625 C-5.14597656 2.70285156 -4.22945312 2.34320312 -3.28515625 1.97265625 C-1.07581467 1.2003782 -1.07581467 1.2003782 0 0 Z " fill="#212845" transform="translate(1452,1888)"/>
<path d="M0 0 C0.66 0 1.32 0 2 0 C2.99 2.97 3.98 5.94 5 9 C4.01 9.495 4.01 9.495 3 10 C3 9.34 3 8.68 3 8 C2.34 8 1.68 8 1 8 C0.67 5.36 0.34 2.72 0 0 Z " fill="#2E3954" transform="translate(1515,228)"/>
<path d="M0 0 C0.99 0.33 1.98 0.66 3 1 C2.34 5.29 1.68 9.58 1 14 C0.67 14 0.34 14 0 14 C0 9.38 0 4.76 0 0 Z " fill="#28375C" transform="translate(1161,694)"/>
<path d="M0 0 C0.99 0 1.98 0 3 0 C4.6290678 4.79137588 5.20577428 8.05632546 4 13 C3.67 13 3.34 13 3 13 C2.86722656 12.39671875 2.73445313 11.7934375 2.59765625 11.171875 C2.42105469 10.37265625 2.24445313 9.5734375 2.0625 8.75 C1.88847656 7.96109375 1.71445313 7.1721875 1.53515625 6.359375 C1.052444 4.23121297 0.53836822 2.11467158 0 0 Z " fill="#192541" transform="translate(1442,219)"/>
<path d="M0 0 C3.75376152 1.25125384 4.24073289 2.5652404 6 6 C6 6.66 6 7.32 6 8 C4.125 7.6875 4.125 7.6875 2 7 C0 4 0 4 0 0 Z " fill="#273250" transform="translate(1508,216)"/>
<path d="M0 0 C0.99 0.33 1.98 0.66 3 1 C2.07213211 2.00894372 1.13231567 3.00690907 0.1875 4 C-0.59560547 4.8353125 -0.59560547 4.8353125 -1.39453125 5.6875 C-3 7 -3 7 -6 7 C-6 6.01 -6 5.02 -6 4 C-4.35 3.67 -2.7 3.34 -1 3 C-0.67 2.01 -0.34 1.02 0 0 Z " fill="#1A2544" transform="translate(1484,1864)"/>
<path d="M0 0 C0 3.21534057 -0.26476072 4.35582586 -2 7 C-4.5 8.8125 -4.5 8.8125 -7 10 C-7.66 9.67 -8.32 9.34 -9 9 C-6.03 6.03 -3.06 3.06 0 0 Z " fill="#2C3A5E" transform="translate(1103,841)"/>
<path d="M0 0 C2.64 0 5.28 0 8 0 C6.35 1.65 4.7 3.3 3 5 C2.01 4.34 1.02 3.68 0 3 C0 2.01 0 1.02 0 0 Z " fill="#19284D" transform="translate(1162,691)"/>
<path d="M0 0 C7.42857143 -0.28571429 7.42857143 -0.28571429 11 2 C7.01803543 3.05404945 4.01804691 2.84098656 0 2 C0 1.34 0 0.68 0 0 Z " fill="#2F3A50" transform="translate(629,1902)"/>
<path d="M0 0 C0.33 0.66 0.66 1.32 1 2 C1.66 2.33 2.32 2.66 3 3 C1.741875 3.28875 0.48375 3.5775 -0.8125 3.875 C-3.8539399 4.57303539 -5.30669878 5.20446585 -8 7 C-8.33 6.01 -8.66 5.02 -9 4 C-6.03 2.68 -3.06 1.36 0 0 Z " fill="#2C344E" transform="translate(1321,215)"/>
<path d="M0 0 C0.99 0.33 1.98 0.66 3 1 C1.60667426 4.36720387 0.0210714 5.9859524 -3 8 C-1.125 2.25 -1.125 2.25 0 0 Z " fill="#17223F" transform="translate(1491,1855)"/>
<path d="M0 0 C2 1 2 1 2 1 Z M-3 1 C-2.01 1.33 -1.02 1.66 0 2 C-3.465 4.97 -3.465 4.97 -7 8 C-7.66 7.67 -8.32 7.34 -9 7 C-7.02 5.02 -5.04 3.04 -3 1 Z " fill="#243358" transform="translate(1213,779)"/>
<path d="M0 0 C0.66 0.66 1.32 1.32 2 2 C-2.75 6 -2.75 6 -5 6 C-4.1875 3.5625 -4.1875 3.5625 -3 1 C-2.01 0.67 -1.02 0.34 0 0 Z " fill="#19284C" transform="translate(1175,776)"/>
<path d="M0 0 C2.23551759 3.35327639 2.17283528 3.90743657 1.625 7.6875 C1.51414062 8.49574219 1.40328125 9.30398438 1.2890625 10.13671875 C1.19367188 10.75160156 1.09828125 11.36648438 1 12 C0.67 12 0.34 12 0 12 C-0.19477739 10.37585622 -0.38059458 8.75063577 -0.5625 7.125 C-0.66691406 6.22007812 -0.77132813 5.31515625 -0.87890625 4.3828125 C-1 2 -1 2 0 0 Z " fill="#323C58" transform="translate(1525,251)"/>
<path d="M0 0 C0.66 0.99 1.32 1.98 2 3 C0.02 3.99 0.02 3.99 -2 5 C-2 5.99 -2 6.98 -2 8 C-2.99 7.67 -3.98 7.34 -5 7 C-3.35 4.69 -1.7 2.38 0 0 Z " fill="#2A3653" transform="translate(545,205)"/>
<path d="M0 0 C1.32 0.33 2.64 0.66 4 1 C1.03 3.475 1.03 3.475 -2 6 C-2.33 5.01 -2.66 4.02 -3 3 C-2.34 3 -1.68 3 -1 3 C-0.67 2.01 -0.34 1.02 0 0 Z " fill="#253350" transform="translate(1153,1806)"/>
<path d="M0 0 C0 0.33 0 0.66 0 1 C-5.445 2.485 -5.445 2.485 -11 4 C-10 1 -10 1 -8.3125 -0.25 C-5.26772958 -1.23749311 -3.08088616 -0.7002014 0 0 Z " fill="#101E3E" transform="translate(1019,1249)"/>
<path d="M0 0 C0.99 0.33 1.98 0.66 3 1 C2.2884375 1.8353125 2.2884375 1.8353125 1.5625 2.6875 C-0.12395996 5.18346074 -0.58953107 7.0446237 -1 10 C-1.33 10 -1.66 10 -2 10 C-2.1953125 3.9453125 -2.1953125 3.9453125 -2 2 C-1.34 1.34 -0.68 0.68 0 0 Z " fill="#162448" transform="translate(985,802)"/>
<path d="M0 0 C2.97 0.33 5.94 0.66 9 1 C5.1496895 3.56687367 3.41430237 2.83288724 -1 2 C-0.67 1.34 -0.34 0.68 0 0 Z " fill="#2C3450" transform="translate(1328,216)"/>
<path d="M0 0 C2.97 0.495 2.97 0.495 6 1 C6.33 2.98 6.66 4.96 7 7 C5.83040013 6.02433888 4.66438823 5.044375 3.5 4.0625 C2.8503125 3.51722656 2.200625 2.97195313 1.53125 2.41015625 C1.0259375 1.94480469 0.520625 1.47945312 0 1 C0 0.67 0 0.34 0 0 Z " fill="#2C3650" transform="translate(911,1787)"/>
<path d="M0 0 C3.465 1.485 3.465 1.485 7 3 C7 3.33 7 3.66 7 4 C3.7 4 0.4 4 -3 4 C-2.01 2.68 -1.02 1.36 0 0 Z " fill="#253357" transform="translate(1045,953)"/>
<path d="M0 0 C1.5625 1.625 1.5625 1.625 3 4 C2.6875 7.25 2.6875 7.25 2 10 C-0.4294516 6.3558226 -0.16179575 4.28758728 0 0 Z " fill="#CDDBF5" transform="translate(889,716)"/>
<path d="M0 0 C1.5 1.1875 1.5 1.1875 3 3 C3.1875 5.6875 3.1875 5.6875 3 8 C2.01 8 1.02 8 0 8 C0 5.36 0 2.72 0 0 Z " fill="#172642" transform="translate(1328,235)"/>
<path d="M0 0 C1.0625 1.875 1.0625 1.875 2 4 C1.67 4.66 1.34 5.32 1 6 C0.34 6 -0.32 6 -1 6 C-1.33 6.99 -1.66 7.98 -2 9 C-1.125 1.125 -1.125 1.125 0 0 Z " fill="#444F6A" transform="translate(520,261)"/>
<path d="M0 0 C0.99 0.33 1.98 0.66 3 1 C1.35 2.98 -0.3 4.96 -2 7 C-2.33 6.01 -2.66 5.02 -3 4 C-1.5625 1.8125 -1.5625 1.8125 0 0 Z " fill="#E9EFF5" transform="translate(550,195)"/>
</svg>
